<svg xmlns="http://www.w3.org/2000/svg" width="26" height="25.25"><path fill="#fff" d="M24.174 12.587c0-6.4-5.186-11.587-11.587-11.587-6.4 0-11.587 5.187-11.587 11.587 0 5.793 4.255 10.58 9.81 11.438v-8.937h-2.244v-2.785h2.243v-1.401c0-2.01 1.509-3.645 3.363-3.645h2.242v2.776h-2.242c-.265 0-.561.359-.561.841v1.429h2.803v2.785h-2.803v9.035c5.92-.52 10.563-5.482 10.563-11.536z"/><linearGradient id="a" gradientUnits="userSpaceOnUse" x1="-192" y1="-114.832" x2="-192" y2="-83.313"><stop offset="0" stop-color="#fff"/><stop offset="1" stop-color="#ccc"/></linearGradient><path fill="url(#a)" d="M-208-88.334c0 2.936 2.4 5.334 5.334 5.334h21.333c2.934 0 5.333-2.398 5.333-5.334v-21.33c0-2.934-2.399-5.334-5.333-5.334h-21.333c-2.934 0-5.334 2.4-5.334 5.334v21.33z"/><path fill="#B3B1B3" d="M-181.333-114.748c2.803 0 5.083 2.28 5.083 5.084v21.33c0 2.804-2.28 5.084-5.083 5.084h-21.333c-2.803 0-5.084-2.28-5.084-5.084v-21.33c0-2.804 2.281-5.084 5.084-5.084h21.333m0-.25h-21.333c-2.934 0-5.334 2.4-5.334 5.334v21.33c0 2.936 2.4 5.334 5.334 5.334h21.333c2.934 0 5.333-2.398 5.333-5.334v-21.33c0-2.934-2.399-5.334-5.333-5.334z"/><linearGradient id="b" gradientUnits="userSpaceOnUse" x1="-192" y1="-114.834" x2="-192" y2="-83.313"><stop offset="0" stop-color="#DFE3E5"/><stop offset="1" stop-color="#BCC5CA"/></linearGradient><path fill="url(#b)" d="M-181.334-115h-21.332c-2.934 0-5.334 2.4-5.334 5.334v21.332c0 2.936 2.4 5.334 5.334 5.334h21.332c2.934 0 5.334-2.398 5.334-5.334v-21.332c0-2.934-2.4-5.334-5.334-5.334zm4.334 26.666c0 2.391-1.943 4.334-4.334 4.334h-21.332c-2.391 0-4.334-1.943-4.334-4.334v-21.332c0-2.39 1.943-4.334 4.334-4.334h21.332c2.391 0 4.334 1.944 4.334 4.334v21.332z"/><g opacity=".7"><linearGradient id="c" gradientUnits="userSpaceOnUse" x1="-192" y1="-83.875" x2="-192" y2="-100.891"><stop offset="0" stop-color="#fff"/><stop offset="1"/></linearGradient><path fill="url(#c)" d="M-181.334-114h-21.332c-2.391 0-4.334 1.944-4.334 4.334v21.332c0 2.391 1.943 4.334 4.334 4.334h21.332c2.391 0 4.334-1.943 4.334-4.334v-21.332c0-2.39-1.943-4.334-4.334-4.334zm3.334 25.666c0 1.838-1.496 3.334-3.334 3.334h-21.332c-1.838 0-3.334-1.496-3.334-3.334v-21.332c0-1.838 1.496-3.334 3.334-3.334h21.332c1.838 0 3.334 1.496 3.334 3.334v21.332z"/></g><g opacity=".7"><linearGradient id="d" gradientUnits="userSpaceOnUse" x1="-192" y1="-113.972" x2="-192" y2="-108.718"><stop offset="0" stop-color="#fff"/><stop offset="1"/></linearGradient><path fill="url(#d)" d="M-181.334-114h-21.332c-2.391 0-4.334 1.944-4.334 4.334v1c0-2.39 1.943-4.334 4.334-4.334h21.332c2.391 0 4.334 1.944 4.334 4.334v-1c0-2.39-1.943-4.334-4.334-4.334z"/></g><path fill="#fff" d="M-191.858-96.545l-.504.019c-.11-.315-.178-.661-.178-1.038 0-.371.065-1.025.173-1.026l.168.005c2.824 0 5.113-2.292 5.113-5.117 0-.674-.309-1.547-.668-1.906l1.754-.981v-3.411l-3.659 2.043c-.812-.542-1.64-.86-2.689-.86-2.824 0-5.039 2.289-5.039 5.113 0 1.589.763 3.009 1.899 3.946-.316.665-.479 1.404-.479 2.189 0 .705.157 1.375.415 1.984-1.486.871-2.447 2.252-2.447 3.811 0 2.637 2.75 4.773 6.139 4.773 3.391 0 6.138-2.137 6.138-4.773-.002-2.634-2.748-4.771-6.136-4.771zm-.341-9.546c1.318 0 2.386 1.068 2.386 2.386s-1.067 2.387-2.386 2.387-2.387-1.068-2.387-2.387c0-1.317 1.068-2.386 2.387-2.386zm.341 16.153c-1.506 0-2.728-.821-2.728-1.836 0-1.014 1.222-1.835 2.728-1.835s2.728.821 2.728 1.835c-.001 1.015-1.223 1.836-2.728 1.836z"/><linearGradient id="e" gradientUnits="userSpaceOnUse" x1="-191.862" y1="-89.557" x2="-191.862" y2="-113.195"><stop offset="0" stop-color="#666"/><stop offset="1"/></linearGradient><path fill="url(#e)" d="M-191.858-97.545l-.504.019c-.11-.315-.178-.661-.178-1.038 0-.371.065-1.025.173-1.026l.168.005c2.824 0 5.113-2.292 5.113-5.117 0-.674-.309-1.547-.668-1.906l1.754-.981v-3.411l-3.659 2.043c-.812-.542-1.64-.86-2.689-.86-2.824 0-5.039 2.289-5.039 5.113 0 1.589.763 3.009 1.899 3.946-.316.665-.479 1.404-.479 2.189 0 .705.157 1.375.415 1.984-1.486.871-2.447 2.252-2.447 3.811 0 2.637 2.75 4.773 6.139 4.773 3.391 0 6.138-2.137 6.138-4.773-.002-2.634-2.748-4.771-6.136-4.771zm-.341-9.546c1.318 0 2.386 1.068 2.386 2.386s-1.067 2.387-2.386 2.387-2.387-1.068-2.387-2.387c0-1.317 1.068-2.386 2.387-2.386zm.341 16.153c-1.506 0-2.728-.821-2.728-1.836 0-1.014 1.222-1.835 2.728-1.835s2.728.821 2.728 1.835c-.001 1.015-1.223 1.836-2.728 1.836z"/><g fill="#fff"><path d="M-36.52-18.517c-.486-.064-.978-.108-1.48-.108-.793 0-1.565.084-2.311.24 1.178-.129 2.466-.15 3.791-.132zM-38.205-11.408c1.037-2.46-.99-6.564-3.564-6.091-3.584.659-1.729 6.788.667 7.354 1.174.277 2.497-.314 2.897-1.263zM-34.777-18.151c-.66.453-1.418.807-2.684.652 1.021 1.01 2.183 2.563 1.632 4.679-.159.614-.673 1.335-1.112 1.784-.681.691-1.822 1.174-1.784 2.154.047 1.194 2.326 2.104 3.12 3.12 1.094 1.399.803 3.875-.297 5.124-2.219 2.521-9.106 3.223-11.068 0-.395-.648-.424-1.38-.372-1.93.284-2.982 3.607-3.754 6.909-4.013-.309-.543-1.147-1.875-.446-2.822-3.271.309-5.554-1.758-5.126-4.754.088-.614.268-1.14.517-1.596-2.304 2.06-3.761 5.045-3.761 8.377 0 6.213 5.037 11.25 11.25 11.25s11.25-5.037 11.25-11.25c-.001-5.091-3.388-9.388-8.028-10.775zM-45.039-3.534c-1.22 4.186 6.852 5.33 8.245 2.302.709-1.54-.411-2.945-1.114-3.563-.385-.341-1.195-1.02-1.635-1.115-.344-.076-.689.046-1.039.074-2.027.164-3.989.698-4.457 2.302z"/></g><path fill="#fff" d="M-37 3.75c-6.213 0-11.25 5.037-11.25 11.25s5.037 11.25 11.25 11.25 11.25-5.037 11.25-11.25-5.037-11.25-11.25-11.25zm.039 14.349h3.398c.855 0 1.51.662 1.51 1.527 0 .864-.705 1.554-1.562 1.554h-3.398c-2.729 0-4.936-2.377-4.936-5.312v-5.48c0-.865.695-1.566 1.551-1.566s1.504.701 1.504 1.566v1.527h5.291c.857 0 1.551.691 1.551 1.546 0 .853-.693 1.546-1.551 1.546h-5.291v.861c-.001 1.188.931 2.231 1.933 2.231z"/></svg>